<?xml version="1.0" encoding="UTF-8" standalone="no"?>
<!-- Created with Inkscape (http://www.inkscape.org/) -->

<svg
   width="59.630299mm"
   height="59.766064mm"
   viewBox="0 0 59.630299 59.766064"
   version="1.1"
   id="svg1"
   xml:space="preserve"
   xmlns="http://www.w3.org/2000/svg"
   xmlns:svg="http://www.w3.org/2000/svg"><defs
     id="defs1" /><g
     id="g4"
     transform="translate(-70.651124,-103.48073)"><path
       style="display:inline;fill:#1cb2af;stroke:none"
       d="m 102.08854,118.67176 11.64167,3.59085 14.81666,4.08206 c -1.31428,-4.76503 -2.90311,-9.0576 -6.05084,-12.96455 -0.93269,-1.15764 -2.37717,-3.1812 -4.00332,-3.30501 -1.54008,-0.11727 -3.47268,1.44493 -4.7625,2.15969 -3.87787,2.14894 -7.784,4.25251 -11.64167,6.43696 m -29.633333,21.69583 c 1.04494,4.77088 2.936394,9.16393 6.045478,12.96455 0.94383,1.15375 2.377145,3.18079 4.008691,3.30502 1.540074,0.11726 3.472683,-1.44494 4.762498,-2.1597 3.877868,-2.14893 7.784001,-4.25251 11.641667,-6.43695 l -10.583334,-3.28831 -15.875,-4.38461"
       id="path1" /><path
       style="display:inline;fill:#05a98c;fill-opacity:1;stroke:none"
       d="m 86.213541,131.90092 7.408333,-26.72291 c -4.717681,1.03328 -9.211846,2.86879 -12.964583,5.9734 -1.164013,0.96298 -2.993271,2.32504 -3.476133,3.81618 -0.470013,1.45146 1.047408,3.301 1.711031,4.49792 2.072925,3.73875 4.072446,9.6425 7.321352,12.43541 m 28.574999,2.91042 -7.40833,26.72292 c 4.77498,-1.29557 9.06844,-2.87019 12.96457,-6.04611 1.18296,-0.96428 2.92493,-2.23214 3.41956,-3.74349 0.48125,-1.47044 -1.00811,-3.28467 -1.68416,-4.4979 -2.09197,-3.75426 -4.0378,-9.60574 -7.29164,-12.43542"
       id="path2" /><path
       style="display:inline;fill:#02796c;fill-opacity:1;stroke:none"
       d="m 75.630207,118.40717 c -2.636794,4.3775 -4.432804,8.89002 -4.786425,14.02292 -0.09515,1.38115 -0.552572,3.56202 0.403895,4.75256 0.920666,1.14597 3.560942,1.42648 4.911697,1.8216 4.390446,1.28427 8.789148,2.64405 13.229167,3.74459 l -8.762022,-15.875 -4.996312,-8.46667 m 35.983333,5.55625 13.49375,24.34167 h 0.26458 c 3.76326,-5.6693 5.44006,-12.28493 4.7625,-19.05 l -18.52083,-5.29167"
       id="path3" /><path
       style="display:inline;fill:#04c7dd;fill-opacity:1;stroke:none"
       d="m 91.240624,122.11134 24.077086,-13.22917 v -0.52916 c -4.18488,-2.67037 -9.0139,-4.5486 -14.02292,-4.74497 -1.23315,-0.0483 -3.481216,-0.4137 -4.52981,0.36747 -1.14866,0.85571 -1.365731,3.34738 -1.752281,4.64208 -1.317091,4.41142 -3.016854,8.95055 -3.772075,13.49375 m 18.256246,22.48958 -23.812496,13.22917 v 0.52917 c 4.188314,2.52284 8.588756,4.27637 13.49375,4.69625 1.356156,0.1161 3.639226,0.45497 4.882296,-0.2007 1.23863,-0.65333 1.46071,-3.01594 1.80795,-4.23097 1.12219,-3.92659 4.17796,-9.97546 3.6285,-14.02292 z"
       id="path4" /></g></svg>
